<svg xmlns="http://www.w3.org/2000/svg" viewBox="0 0 800 450" width="100%" height="100%">
  <defs>
    <linearGradient id="bg-5" x1="0%" y1="0%" x2="100%" y2="100%">
      <stop offset="0%" stop-color="#172554"/>
      <stop offset="50%" stop-color="#1e3a8a"/>
      <stop offset="100%" stop-color="#0f172a"/>
    </linearGradient>
  </defs>
  <rect width="800" height="450" fill="url(#bg-5)"/>
  <!-- High Voltage Transformer & Energy Grid -->
  <g transform="translate(140, 100)">
    <!-- Transformer Coils -->
    <rect x="80" y="40" width="200" height="140" rx="10" fill="#0f172a" stroke="#3b82f6" stroke-width="3"/>
    <circle cx="140" cy="110" r="35" fill="none" stroke="#60a5fa" stroke-width="4"/>
    <circle cx="220" cy="110" r="35" fill="none" stroke="#60a5fa" stroke-width="4"/>
    <!-- Insulators -->
    <rect x="110" y="10" width="16" height="30" fill="#94a3b8" rx="2"/>
    <rect x="172" y="10" width="16" height="30" fill="#94a3b8" rx="2"/>
    <rect x="234" y="10" width="16" height="30" fill="#94a3b8" rx="2"/>
  </g>
  <!-- Sine wave & Power Factor Gauge -->
  <g transform="translate(430, 130)">
    <rect x="0" y="0" width="240" height="130" rx="8" fill="#0f172a" stroke="#3b82f6" stroke-width="1.5"/>
    <path d="M 20,65 Q 45,20 70,65 T 120,65 T 170,65 T 220,65" fill="none" stroke="#fbbf24" stroke-width="3"/>
    <path d="M 20,65 Q 45,35 70,65 T 120,65 T 170,65 T 220,65" fill="none" stroke="#38bdf8" stroke-width="2" stroke-dasharray="3,3"/>
    <text x="30" y="110" fill="#94a3b8" font-family="sans-serif" font-size="12">cos φ = <tspan fill="#10b981" font-weight="700">0.99</tspan></text>
    <text x="130" y="110" fill="#94a3b8" font-family="sans-serif" font-size="12">THD = <tspan fill="#10b981" font-weight="700">1.8%</tspan></text>
  </g>
  <!-- Badge -->
  <rect x="50" y="40" width="160" height="28" rx="14" fill="#1e3a8a" stroke="#60a5fa" stroke-width="1.5"/>
  <circle cx="66" cy="54" r="5" fill="#fbbf24"/>
  <text x="80" y="58" fill="#f8fafc" font-family="system-ui, sans-serif" font-size="12" font-weight="600">POWER QUALITY</text>
</svg>