<svg xmlns="http://www.w3.org/2000/svg" viewBox="0 0 800 450" width="100%" height="100%">
  <defs>
    <linearGradient id="bg-13" x1="0%" y1="0%" x2="100%" y2="100%">
      <stop offset="0%" stop-color="#0f172a"/>
      <stop offset="50%" stop-color="#1e293b"/>
      <stop offset="100%" stop-color="#334155"/>
    </linearGradient>
  </defs>
  <rect width="800" height="450" fill="url(#bg-13)"/>
  <!-- Weighbridge Platform & RFID Gantry -->
  <g transform="translate(150, 120)">
    <!-- Scale Platform Base -->
    <rect x="40" y="140" width="420" height="20" fill="#475569" stroke="#94a3b8" stroke-width="2"/>
    <!-- Load Cells under platform -->
    <rect x="80" y="160" width="30" height="15" fill="#f59e0b"/>
    <rect x="235" y="160" width="30" height="15" fill="#f59e0b"/>
    <rect x="390" y="160" width="30" height="15" fill="#f59e0b"/>
    <!-- RFID Gantry Pole & Antenna -->
    <rect x="120" y="10" width="12" height="130" fill="#64748b"/>
    <rect x="100" y="10" width="52" height="18" fill="#0f172a" stroke="#38bdf8" stroke-width="2" rx="4"/>
    <!-- RFID Waves propagating down -->
    <path d="M 110,40 Q 126,55 142,40" stroke="#38bdf8" stroke-width="2.5" fill="none"/>
    <path d="M 100,52 Q 126,72 152,52" stroke="#38bdf8" stroke-width="2.5" fill="none"/>
    <path d="M 90,64 Q 126,89 162,64" stroke="#38bdf8" stroke-width="2.5" fill="none"/>
    <!-- Automatic Barrier -->
    <rect x="360" y="50" width="16" height="90" fill="#64748b"/>
    <line x1="368" y1="65" x2="480" y2="40" stroke="#ef4444" stroke-width="6" stroke-linecap="round"/>
  </g>
  <!-- Badge -->
  <rect x="50" y="40" width="160" height="28" rx="14" fill="#1e293b" stroke="#38bdf8" stroke-width="1.5"/>
  <circle cx="66" cy="54" r="5" fill="#38bdf8"/>
  <text x="80" y="58" fill="#f8fafc" font-family="system-ui, sans-serif" font-size="12" font-weight="600">AUTO WEIGHBRIDGE</text>
</svg>