<svg xmlns="http://www.w3.org/2000/svg" viewBox="0 0 800 450" width="100%" height="100%">
  <defs>
    <linearGradient id="bg-3" x1="0%" y1="0%" x2="100%" y2="100%">
      <stop offset="0%" stop-color="#022c22"/>
      <stop offset="50%" stop-color="#064e3b"/>
      <stop offset="100%" stop-color="#0f172a"/>
    </linearGradient>
  </defs>
  <rect width="800" height="450" fill="url(#bg-3)"/>
  <!-- Video Viewfinder Frame -->
  <g stroke="#10b981" stroke-width="3" fill="none">
    <path d="M 80,100 L 80,60 L 120,60"/>
    <path d="M 720,100 L 720,60 L 680,60"/>
    <path d="M 80,350 L 80,390 L 120,390"/>
    <path d="M 720,350 L 720,390 L 680,390"/>
    <!-- Center Target -->
    <circle cx="400" cy="225" r="30" stroke="#10b981" stroke-width="1.5" stroke-dasharray="6,6"/>
    <line x1="400" y1="180" x2="400" y2="270" stroke="#10b981" stroke-width="1"/>
    <line x1="350" y1="225" x2="450" y2="225" stroke="#10b981" stroke-width="1"/>
  </g>
  <!-- AI Detection Bounding Boxes -->
  <g transform="translate(240, 130)">
    <!-- Worker Box (Compliant) -->
    <rect x="0" y="0" width="100" height="180" rx="4" fill="rgba(16, 185, 129, 0.1)" stroke="#10b981" stroke-width="2"/>
    <rect x="0" y="-22" width="90" height="22" fill="#10b981" rx="2"/>
    <text x="6" y="-6" fill="#ffffff" font-family="sans-serif" font-size="11" font-weight="700">PPE OK: 98%</text>
    <!-- Person Silhouette -->
    <circle cx="50" cy="35" r="16" fill="#10b981"/>
    <path d="M 25,70 C 25,55 75,55 75,70 L 75,130 L 25,130 Z" fill="#10b981" opacity="0.6"/>
  </g>
  <g transform="translate(460, 150)">
    <!-- Warning Box (Restricted Area) -->
    <rect x="0" y="0" width="110" height="150" rx="4" fill="rgba(239, 68, 68, 0.1)" stroke="#ef4444" stroke-width="2" stroke-dasharray="6,4"/>
    <rect x="0" y="-22" width="105" height="22" fill="#ef4444" rx="2"/>
    <text x="6" y="-6" fill="#ffffff" font-family="sans-serif" font-size="11" font-weight="700">ZONE ALERT</text>
  </g>
  <!-- Badge -->
  <rect x="50" y="40" width="160" height="28" rx="14" fill="#064e3b" stroke="#10b981" stroke-width="1.5"/>
  <circle cx="66" cy="54" r="5" fill="#ef4444"/>
  <text x="80" y="58" fill="#f8fafc" font-family="system-ui, sans-serif" font-size="12" font-weight="600">AI VISION HSE</text>
</svg>