<svg xmlns="http://www.w3.org/2000/svg" viewBox="0 0 800 450" width="100%" height="100%">
  <defs>
    <linearGradient id="bg-8" x1="0%" y1="0%" x2="100%" y2="100%">
      <stop offset="0%" stop-color="#042f2e"/>
      <stop offset="50%" stop-color="#115e59"/>
      <stop offset="100%" stop-color="#0f172a"/>
    </linearGradient>
  </defs>
  <rect width="800" height="450" fill="url(#bg-8)"/>
  <!-- Topo Contour & Point Cloud Grid -->
  <g stroke="#2dd4bf" stroke-width="1.5" fill="none" opacity="0.4">
    <ellipse cx="400" cy="280" rx="260" ry="90"/>
    <ellipse cx="400" cy="280" rx="190" ry="65"/>
    <ellipse cx="400" cy="280" rx="110" ry="40"/>
  </g>
  <!-- Quadcopter Drone -->
  <g transform="translate(350, 90)">
    <!-- Frame X -->
    <line x1="-50" y1="-20" x2="150" y2="60" stroke="#94a3b8" stroke-width="6" stroke-linecap="round"/>
    <line x1="-50" y1="60" x2="150" y2="-20" stroke="#94a3b8" stroke-width="6" stroke-linecap="round"/>
    <!-- Center Body -->
    <circle cx="50" cy="20" r="24" fill="#0f172a" stroke="#2dd4bf" stroke-width="3"/>
    <circle cx="50" cy="20" r="8" fill="#2dd4bf"/>
    <!-- Rotors -->
    <ellipse cx="-50" cy="-20" rx="28" ry="6" fill="rgba(45, 212, 191, 0.4)" stroke="#2dd4bf" stroke-width="1.5"/>
    <ellipse cx="150" cy="-20" rx="28" ry="6" fill="rgba(45, 212, 191, 0.4)" stroke="#2dd4bf" stroke-width="1.5"/>
    <ellipse cx="-50" cy="60" rx="28" ry="6" fill="rgba(45, 212, 191, 0.4)" stroke="#2dd4bf" stroke-width="1.5"/>
    <ellipse cx="150" cy="60" rx="28" ry="6" fill="rgba(45, 212, 191, 0.4)" stroke="#2dd4bf" stroke-width="1.5"/>
    <!-- Laser / Photogrammetry Cone -->
    <polygon points="50,44 10,190 90,190" fill="rgba(45, 212, 191, 0.15)" stroke="#2dd4bf" stroke-width="1" stroke-dasharray="3,3"/>
  </g>
  <!-- Badge -->
  <rect x="50" y="40" width="160" height="28" rx="14" fill="#115e59" stroke="#2dd4bf" stroke-width="1.5"/>
  <circle cx="66" cy="54" r="5" fill="#2dd4bf"/>
  <text x="80" y="58" fill="#f8fafc" font-family="system-ui, sans-serif" font-size="12" font-weight="600">DRONE SURVEYING</text>
</svg>