<svg xmlns="http://www.w3.org/2000/svg" viewBox="0 0 800 450" width="100%" height="100%">
  <defs>
    <linearGradient id="bg-14" x1="0%" y1="0%" x2="100%" y2="100%">
      <stop offset="0%" stop-color="#1e1b4b"/>
      <stop offset="50%" stop-color="#312e81"/>
      <stop offset="100%" stop-color="#0f172a"/>
    </linearGradient>
  </defs>
  <rect width="800" height="450" fill="url(#bg-14)"/>
  <!-- Warehouse Racks & Spare Gears Motif -->
  <g transform="translate(180, 100)">
    <!-- Rack frame -->
    <rect x="40" y="20" width="200" height="180" fill="none" stroke="#6366f1" stroke-width="3" rx="6"/>
    <line x1="40" y1="80" x2="240" y2="80" stroke="#6366f1" stroke-width="2"/>
    <line x1="40" y1="140" x2="240" y2="140" stroke="#6366f1" stroke-width="2"/>
    <!-- Boxes on shelves -->
    <rect x="60" y="40" width="35" height="35" fill="#f59e0b" rx="3"/>
    <rect x="110" y="40" width="45" height="35" fill="#38bdf8" rx="3"/>
    <rect x="60" y="100" width="55" height="35" fill="#10b981" rx="3"/>
    <rect x="130" y="100" width="35" height="35" fill="#ec4899" rx="3"/>
    <!-- Big Industrial Gear -->
    <g transform="translate(330, 110)">
      <circle cx="0" cy="0" r="50" fill="#0f172a" stroke="#a855f7" stroke-width="6"/>
      <circle cx="0" cy="0" r="20" fill="#312e81"/>
      <path d="M 0,-60 L 0,-45 M 0,60 L 0,45 M -60,0 L -45,0 M 60,0 L 45,0" stroke="#a855f7" stroke-width="8" stroke-linecap="round"/>
    </g>
  </g>
  <!-- Badge -->
  <rect x="50" y="40" width="160" height="28" rx="14" fill="#312e81" stroke="#a855f7" stroke-width="1.5"/>
  <circle cx="66" cy="54" r="5" fill="#a855f7"/>
  <text x="80" y="58" fill="#f8fafc" font-family="system-ui, sans-serif" font-size="12" font-weight="600">INVENTORY OPTIM</text>
</svg>